HIERARCHY
ROOT ui
{
	 OFFSET 0 0 0
	 CHANNELS 3 XPosition YPosition Z Position
	 EndSite
	 {
	 OFFSET 0 -1 0
	 }
}
ROOT li
{
	 OFFSET 0 0 0
	 CHANNELS 3 XPosition YPosition Z Position
	 EndSite
	 {
	 OFFSET 0 -1 0
	 }
}
ROOT ul
{
	 OFFSET 0 0 0
	 CHANNELS 3 XPosition YPosition Z Position
	 EndSite
	 {
	 OFFSET 0 -1 0
	 }
}
ROOT ll
{
	 OFFSET 0 0 0
	 CHANNELS 3 XPosition YPosition Z Position
	 EndSite
	 {
	 OFFSET 0 -1 0
	 }
}
ROOT tt
{
	 OFFSET 0 0 0
	 CHANNELS 3 XPosition YPosition Z Position
	 EndSite
	 {
	 OFFSET 0 -1 0
	 }
}
ROOT tb
{
	 OFFSET 0 0 0
	 CHANNELS 3 XPosition YPosition Z Position
	 EndSite
	 {
	 OFFSET 0 -1 0
	 }
}
ROOT td
{
	 OFFSET 0 0 0
	 CHANNELS 3 XPosition YPosition Z Position
	 EndSite
	 {
	 OFFSET 0 -1 0
	 }
}
ROOT v
{
	 OFFSET 0 0 0
	 CHANNELS 3 XPosition YPosition Z Position
	 EndSite
	 {
	 OFFSET 0 -1 0
	 }
}
ROOT bn
{
	 OFFSET 0 0 0
	 CHANNELS 3 XPosition YPosition Z Position
	 EndSite
	 {
	 OFFSET 0 -1 0
	 }
}
MOTION
Frames: 10
Frame Time: 0.002
6.571589708328247E-4	7.696930170059204E-4	0		0.42295547485351564	-2.340542236328125	0		-1.098827880859375	0.04097677230834961	0		-0.7630443115234375	-2.511931884765625	0		1.51986572265625	-0.7844878540039063	0		3.2003310546875	-0.16622261047363282	0		4.66960693359375	0.01947952651977539	0		5.57753076171875	0.25157589721679685	0		-0.4316244201660156	5.84672705078125	0		
0.003569042921066284	0.004553586006164551	0		0.47574346923828126	-2.344585205078125	0		-1.1067489013671874	0.054941947937011716	0		-0.7380704956054688	-2.504512451171875	0		1.51971142578125	-0.7846544799804688	0		3.205894775390625	-0.18348709106445313	0		4.6763525390625	0.013196248054504395	0		5.577419921875	0.25128416442871093	0		-0.43275875854492185	5.84757763671875	0		
-0.010482319831848145	0.010632079124450683	0		0.438743896484375	-2.335126708984375	0		-1.111967041015625	0.050873287200927736	0		-0.7382241821289063	-2.50466455078125	0		1.5575201416015625	-0.7874364624023438	0		3.226053955078125	-0.1649746551513672	0		4.66133447265625	0.02128900909423828	0		5.57731201171875	0.2510163116455078	0		-0.43290884399414065	5.84742529296875	0		
1.990559995174408E-4	3.140490055084229E-4	0		0.4625055236816406	-2.34066064453125	0		-1.11211865234375	0.05073636245727539	0		-0.7424422607421876	-2.50873486328125	0		1.517357177734375	-0.787911865234375	0		3.190758056640625	-0.1735323028564453	0		4.66708251953125	0.015051682472229004	0		5.57426806640625	0.23878190612792968	0		-0.4330585021972656	5.84728857421875	0		
0.004965490818023681	-0.004889666080474853	0		0.4203110961914063	-2.343086669921875	0		-1.1122686767578125	0.05061494064331055	0		-0.7425927734375	-2.508856201171875	0		1.51720703125	-0.7880337524414063	0		3.194690185546875	-0.16872140502929686	0		4.66899853515625	0.018895570755004882	0		5.56704150390625	0.24058599853515625	0		-0.4332075500488281	5.8471669921875	0		
-9.900099784135819E-5	8.651600033044815E-5	0		0.4751390686035156	-2.34510302734375	0		-1.095534912109375	0.043228515625	0		-0.7715877075195312	-2.499483154296875	0		1.5280574951171875	-0.78832177734375	0		3.222372802734375	-0.17928945922851564	0		4.6688505859375	0.018789737701416016	0		5.572806640625	0.2643904724121094	0		-0.417225341796875	5.854794921875	0		
0.002821321964263916	0.003946336984634399	0		0.4790763244628906	-2.340259765625	0		-1.10749658203125	0.05433546829223633	0		-0.6668629150390625	-2.508310791015625	0		1.525078125	-0.7783630981445312	0		3.19569482421875	-0.15093553161621093	0		4.66793701171875	0.032715457916259766	0		5.57688720703125	0.2502270202636719	0		-0.43251910400390625	5.84595458984375	0		
-3.8765999674797056E-4	-7.717200368642807E-5	0		0.4738188781738281	-2.34724951171875	0		-1.112705322265625	0.05034463882446289	0		-0.7729078369140625	-2.501630615234375	0		1.5188201904296874	-0.7853359375	0		3.19913720703125	-0.17607081604003907	0		4.66059619140625	0.020761077880859374	0		5.56673046875	0.24012556457519532	0		-0.4336478576660156	5.84689697265625	0		
-5.289639830589294E-4	-1.34660005569458E-4	0		0.46382904052734375	-2.338142578125	0		-1.116895751953125	0.0473532600402832	0		-0.6732437744140625	-2.514342529296875	0		1.5186793212890626	-0.7853927001953125	0		3.19719482421875	-0.16409532165527344	0		4.66045458984375	0.020705785751342774	0		5.57081396484375	0.2260206298828125	0		-0.43379190063476564	5.84683935546875	0		
-6.689500212669373E-4	-1.7614400386810304E-4	0		0.4715069580078125	-2.349314697265625	0		-1.1129866943359374	0.050244621276855465	0		-0.74127392578125	-2.50725927734375	0		1.5185396728515625	-0.7854334716796875	0		3.212837646484375	-0.17739840698242187	0		4.66031494140625	0.020666484832763673	0		5.560111328125	0.2402210235595703	0		-0.43295132446289064	5.84578125	0		
